<svg xmlns="http://www.w3.org/2000/svg" viewBox="0 0 113.2 44.5" enable-background="new 0 0 113.2 44.5"><g fill="#222"><path d="m14.9 39.6c-1.9-1.5-3.9-2.9-5.3-4.9-2.9-3.6-5.2-7.7-6.7-12-.9-2.8-1.2-5.8-2.4-8.5-1.2-2 .2-4.1 2.4-4.7 1-.2 2.6-1.1.6-.4-1.8 1.3-2-1.2-.1-1.4 1.3-.2 1.7-1.2 1.3-2.2-1.4-.9 3.3-1.9 1-3.2-2.6-2.7 3.3-3.3 1.9-.2-.3 2.3 4.1-.4 3.1 2.3 1.1 1.3 3.9.3 3.9 2.1 1.5.1 2.1 1.4 3.5 1.5 1.5.7 4.2 1.2 4.7 2.9-1.5 1.2-4.9-2.4-5.1.8.4 4.8.3 9.7 2.1 14.3.8 2.8 2.8 4.9 4.7 7.1 1.7 2.1 4.1 3.6 6.5 4.8 2.1 1 4.4 1.7 6.7 2.1.9-.7 2.6-3.4 4-2.2.1 1.3-2.9 2.6-.1 2.5 1.6-.5 2.7 1.2 4.1-.3 1.2 1.4 5.1-.9 4.2 2-1.2.8-2.9.3-4.1 1.3-1.9-1-3.5.9-5.6.6-2.4.4-4.8.6-7.2.6-4-.3-8-.4-11.8-1.8-2.4-.7-4.4-1.9-6.3-3.1m3.4 1.5c2.1.9 4.1 1.8 6.4 2.1 3.6.5 7.3 1.3 11 .6-1.6-.7-3.3.3-5-.5-2 .4-4.1-.1-6.1-.4-2.3-1-4.7-1.7-6.8-3-2.7-1 1.4 1.2 2.1 1.4 1.7.9-1.8-.5-2.3-.9-1.4-.8-1.6-.6-.1.2.2.1.5.3.8.5m-4-2.8c2 .7 0-1.4-.9-1.3-.4-.7-1.6-1.2-.7-1.5-1.5.5-1.5-1.9-2.2-1.6-1.5-.5-.6-2.2-2.4-3.3-.2-1.1-1.8-2.1-2.4-3.8-.2-.9-1.9-3.4-.9-1 .9 2.2 2.4 4.1 3.6 6 1 1.8 2.1 3.7 3.9 4.8.6.6 1.1 1.5 2 1.7m-5.8-6.4c.1-.3.4.6 0 0m8.2 7.3c.5-.2-.6-.3 0 0m1.1.4c-.1-.6-.5.3 0 0m1.4.5c.6-.6-1-.4 0 0m2.3 1.3c.4-.6-1.2-.2 0 0m-4.5-3.1c1-.7-1.3 0 0 0m1 .5c0-.3-.3.2 0 0m5.2 3.2c.8.5 4.8 1.1 2.3.2-.4.1-4.6-1.2-2.3-.2m-8.2-6.3c-.1-.4-1.3-.4 0 0m2.4 1.4c.6-.5-1.3-.4 0 0m2 1.2c.9-.4-1.4-.4 0 0m-5.3-3.7c1 .7 3.9.1 1.5-.4-1.1-.6-3.6-1-1.9.4h.4m6.7 4.1c.4-.7-1.7-.4 0 0m-2.1-1.6c2.4.7-2-1.5-.6-.2l.3.1.3.1m4.1 2.4c2.3 0-2-.4 0 0m-9.6-6.2c-.1-.4-.6 0 0 0m13.4 8.3c.1-.8-.7.5 0 0m-9.6-6c-.1-.3-.7 0 0 0m-3.6-2.6c1.3 0-1.8-.5 0 0m-4.3-2.7c-.1-.6-1.4-1.1 0 0m11.3 7.1c-.3-.3-.2.1 0 0m7 4.3c-.1-.4-.4.2 0 0m-7.7-4.9c.2-.6-1.1-.2 0 0m-5.2-3.3c1-.1-1.5-.7 0 0m8.8 5.4c1.5-.5-1.4-.2 0 0m-4.5-3.1c1.7.2-2-1.2-.4-.1l.4.1m5.9 3.7c1.6-1 1.1 2.2 2.7.3 1.6-1.2-1.4 1.5.6.2 1.4-1 3.6.5 4.9.9 1 0 1.9.8 2.9.3 1.9-.5-3.8-.8-2.3-1.7-1.8.5-3.1-.6-3.9-1.7-2-.5-4.2-1.5-5.2-3.2-.4-.7.6.1-.3-1-1.2-1.1-1.8-2.3-2.6-3.5-1-.5-1.1-2-1.2 0 0-1.2-1.1-2.1-1.4-1.7 0-1.2 1.2-.6.4-1.5-.2-1.2-.8-2.5-1-3.9-.3-.7 0-2.1-1-.6-.3 1.6-.1-2 .4-.8.7-1.2-.3-1.1-.3-.9.5-1 .3-2.4-.1-1.9.2-1.1.4-4-.4-3.4.5-1.1.9-5.1-1.1-3.6-.8 0-2.2.3-2.8.6 2 1.1-.2.4-1 .2-.1 1-.9.6-2 .6 1.6.2-.8 1.7-1.7 1.1-1.2.6 1.1 2.1 0 2.5.1.7-1.9-.2-1.7 1.3-1.2-.5-.2 1.9.4 1.1 2 .5 1.4 1.8 1.5 3-.3.7-1.6-1.6-.3-1.5-1.1-1.7-1.2-.6-2 .2-.2 0 2.3 1.1.7 1.6 1.3.2 1.4 1.4 1.7 2.1.8.8.6-.9 1.6.1-.6-.9-3.3-2.6-1.1-2 0-.9-.4-1.6.3-1.6.6-1.2-.7 2.9.8 1.4.4-.2.5-1.2 1.2.1 1.1 1 .4 1.8-1.1.8.3.9 2 1.2 1.7 2.6.3 1.2.8.8 1.2.7.3 1.2.5.3.5-.3 1.5.3 1.1 1.2 1.6 1.8 1 .5-1.5-3.2.3-1.1 1.9 1.7.7 2.4-1 2.1 1.1-.1 1.4 1.4 2.7 1.4 1.2.6 2 2.8-.1 1.9-.7-.7-3.3-1.5-1.2-.2 1.9.9 3.5 1.4 5.3 2.5 1.3.9 1.9 2 2.4 2.3-1.1.5-3.4-.4-1.7-.7-1-.2-2.2-.7-1.2.6.9.7 3 .6 3.4.7-.3.7-.9.8 0 .8-.9.6.4.7.5 1m-2-5.8c-.6-.6-.8-1.8-.1-.8.3.1 1.1 1.9.1.8m6.7 4.2c.4 0 0 .3 0 0m-7.7-5.8c0-1 .2.7 0 0m-.7-.9c-.7-1.5 1 .4 0 0m-8.1-5.6c.5-.1.2.8 0 0m6.5 3.5c.3-1 .3.9 0 0m-4.6-3.2c-.3-.5.7.6 0 0m3.9 1.3c-.7-1.6.5-.9.2.3l-.2-.3m-6.7-4.5c-.3-.5-.9-2.1-.7-2.6.2.8 1.7 3.4.7 1.1-1-1.9 1.2.6 1.5 1.1.1.5-.6-.1-.1 1-1-1.3-.6.7-1.4-.6m-2.1-1.4c.1-1.3.5.8 0 0m.9.3c.5-1 .8 1.3 0 0m-2.2-1.8c-.8-.8-1.3-1.5 0-.5.5 0-1.2-1.6.1-.5 1.4.3.7 2.3-.1 1m1.2 0c.4-.4.2.4 0 0m.7.2c-.7-1.2.8.6 0 0m-1.5-1.4c-2.3-2 2.8 1 .4.4l-.4-.4m6.5 3.8c-1-.6-.3-4.1.1-1.7.9-.3-.1 1.2.7 1.2-.2 1-.5 1.4-.8.5m2.4 1.4c.1-1 .2.7 0 0m-.4-.4c.1-.5 0 .5 0 0m-8-5.4c-1.4-2 4.2 2 .9.5-.3-.1-.7-.1-.9-.5m4.6 2.4c-.1-1.7.3.3 0 0m3.5 2.3c.3-1 0 .6 0 0m-7.9-5.5c.9-.2 3.6 1.5 1.1.5-.3-.3-.9-.2-1.1-.5m7.4 3.7c.1-1.7.5-1 0 .2v-.2m-6.7-4.3c.4-.5-.9-2.3.2-.6.5.4 1.4.6.6.8 1.2 1.1-.4.3-.8-.2m6.3 3.8c.3-2 .3 1.1 0 0m-7.1-5.6c.3-.1.2.4 0 0m1.7 1c.4-.9.8 1 0 0m4.7 2.6c0-.3.1.5 0 0m-.3-.6c-.6-1.6.6.9 0 0m-.4-1c-.1-.7.4.8 0 0m.7-1.1c-.4-.8.6-3.5.7-1.8-.5 1.3-.1 2 .2.3.5-1.4-.2 2.7-.9 1.5m.6-4c.2-.2.1.3 0 0m-1.1 22.1c-.2-.3.1.1 0 0m2.3 1.1c1.3.3 1.3-.2.1-.4-.6-.6-2.6-1.2-.8-.1.1.4.5.4.7.5m-4.5-3c.7.5 2.7 1.5 1 .2.6-.6-1.1-1-.5-1.4-1.4-.8-1.1-.8-.1-.7-1.6-.7.2-.7.1-1.1-.6-.1-3.2-1.1-1.7.1-1.5-.8-.4.3-.8.2-1.5-.4 1.4 1.2-.2.8.9.7 2.4 1.8.4.7-.3.3 1.4.9 1.8 1.2m2.4 1.4c2.9.9-1.5-1.2 0 0m12.3 7.5c.1-.6-.4.5 0 0m1.3.5c.7-.7 0 1 1.1-.2 0-.9 0-1.4-1.3-.3-.3.2-.4 1 .2.5m-20.1-12.7c-.3-.8-1.5-.8 0 0m1.3.9c-.5-.8-1.8-.7 0 0m7.7 4.7c.8.7 3.5.5.9.1-.3-.6-2.4-.5-.9-.1m10.6 6.5c1.2-.9-1.1.5 0 0m2.4 1.7c0-.3-.5.1 0 0m0-.5c1.3-1.3-1.2.1 0 0m-25.4-16c-1.1-1.6-.7-2.3-1.7-3.5-.2-1-1.8-3.2-.8-.8.9 1.3 1.1 3.4 2.5 4.3m25 15.6c2.4-1.5-1-.7 0 0m1.8.7c1.2-1-.7-.2 0 0m-23.8-15.3c.3-.5-.9 0 0 0m23.4 14.8c1.1-.7-.3-.6-.2.1l.2-.1m-15.5-9.8c0-.5-.6.1 0 0m1 .6c-.3-.6-.5.1 0 0m16.4 9.7c1.5-1.1-.9-.2-.3.2l.3-.2m-.6-.2c1.2-1-1.2.4 0 0m2.9 1.9c.8-.6-1-.2 0 0m-26.9-17.3c1.1.2 4.3 2.6 2.4.2-1-.3-.4-2.7-1.4-2.2.7 1.1.5 1.6-.9.9-1.8-.9-1 .4-.6.8-.5 0 .6.3.5.3m-4.9-3.9c.2-.8-1.8-4.4-.9-1.8.3.5.2 1.6.9 1.8m9 5.5c-.6-.4 0 0 0 0m1.3.4c0-.9-1.5-.4 0 0m11.8 7.4c-.2-.6-.8 0 0 0m.6.4c-.1-.3-.3.1 0 0m4.7 3c.4-.4-.6-.1 0 0m-25-16.1c1.3-.5-1.3-.3 0 0m18.7 11.8c0-.9-.8.2 0 0m-19.2-13c.9-.2-.7-.1 0 0m2.4 1.2c0-.3-.2.1 0 0m29.3 17.9c1.1-.2 3.5.5 3.9-.3-1.3 0-4.5-.9-4.6.2h.3l.4.1m-28.5-17.7c0-.9-.7 0 0 0m-6.3-4.4c-.3-1.6-1.1-.2 0 0m1.5.4c0-.5-1.4-.5 0 0m.8.4c-.2-.2-.1.3 0 0m5.5 3.5c.2-.3-.6-.2 0 0m-6-4.4c-.2-1.3-1.8-.2 0 0m-3.1-2c-.1-.6-.3.2 0 0m.5-.4c-.1-.7-.4.1 0 0m2.5 1.5c1.1-.4-2-.9-.2-.1l.2.1m33.9 21c.7-.6-.9-.2 0 0m4.1 2.1c.3-.8-.7.1 0 0m-37.8-24.4c.2-.8-.8.2 0 0m-3.6-2.4c-.2-1.1-.2-3.1 1.7-2.4-2.5.5 1.7 3.1 1.2 1 1 .1 2-.6 1.5.4 2.1-.2 3.5-2 5.5-1.8 1.5-.2 3.2-.4 4.9-1 1.4-.1 2.7-1.6 1.9-2.4-1.9-.2-3.8.1-5.9.5-2.3.5-4.4 1.4-6.7 1.8-2.2.3.5.8-.2.9-1.2.4 1.4.7-.2 1.1-1-.2-2-.5-1.5-1.5-2.1.3-4 1.2-2.3 3.4h.1m5.2-2.7c.5-1.9 2.7 1.5.8.2-.2-.1-.5-.2-.8-.2m.1-.9c.7-.5.4.3 0 0m.9.1c.1-.9 2.1.5.3.3l-.3-.3m1.3-.6c.5-.5.1.5 0 0m.3-.2c.8-.9 4.4-.6 1.7-.1-.6-.5-1.2.4-1.7.1m4.7-.7c-.1-2.5 2.3.9 0 0m1.3 0c.5-1.3 1.9-.5.2-.3.1.2 0 .7-.2.3m-10.7 6.7c1.5-.8-1.5-.7 0 0m1.1.3c.5-.5-1.1-.2 0 0m-3.2-2.2c.9-.6-.9-.2 0 0m42.8 26.8c.1-.8-.6.3 0 0m-4.3-3c.1-.8-.6.1 0 0m5.5 3.3c1.2 0 3.5-.4 1-.4-.4.1-2.3.1-1 .4m-39.9-25.4c.9-.1 1.5-1-.2-1-2.6-.3 2.3.9-.3.5-.3.3.5.6.5.5m.9.4c-.1-.6-.3.4 0 0m.9-2.6c.4-.5-.5-.1 0 0m-3.1-5.2c1.7-.6 4-1.2 4.8.3-.8-1-.3-1.9.4-.5 1.1 1.4 1.6-.7.9-1.1.8 1 1.7 1.5.5.1 1.3-1.5-2.5.2-3.4.2-.4.1-4.3.9-3.2 1m1-1.9c1-.7 3.3.4 1.8-.7-.1-.1-3.3.9-1.8.7m3.5.2c1.1 0-.5-1.5.8-.8-.2-.7-1.5-.8-2.2-1.1-.3.6.8 1.9 1.4 1.9m-2.9-3.2c.4-.5-.7.3 0 0m1.4.4c1.8-.2-.5-.8-.4 0h.4m-2.6-2.1c-1.3-1.7 2.4.3 1.1-1.5-1.1-.8-2.1 1-1.1 1.5m16.2 8.7c.6-1-2.4-1.4-.4-.4.2.1.2.5.4.4"/><path d="m49.6 3.5c-.2.8-.3 2.2-.4 4.1 0 .4-.2.6-.5.6-.3 0-.6-.2-.7-.5-.4-.9-.7-1.5-1-1.9-.4-.4-.9-.7-1.6-.8-.8 0-2.5 0-5.3 0-.6 0-1.1.1-1.2.2-.1.1-.2.3-.2.5v8.3c0 .3.2.4.5.4 1.1 0 2.7-.1 4.7-.2.4 0 .7-.2.8-.4.1-.2.3-.8.4-1.7.1-.5.4-.7.9-.6.4.1.6.3.5.6-.3 1.7-.5 3.8-.3 6.5 0 .3-.2.5-.6.5-.3 0-.6-.1-.6-.6-.3-1.5-.9-2.3-1.8-2.4-.8-.1-2.2-.1-4.2-.1-.2 0-.3.1-.3.2v8.3c0 .6.2 1 .7 1.2.4.2 1.1.3 2.3.5.6.1.9.3.8.8-.1.4-.6.6-1.6.5-2.9-.2-5.3-.2-7.2 0-.5.1-.8-.1-.8-.6 0-.3.3-.5.8-.6 1.2-.1 1.8-1.2 1.8-3.2v-15.6c0-.8-.1-1.4-.4-1.9-.3-.4-.8-.8-1.6-1.2-.5-.2-.7-.5-.5-.9.1-.2.2-.4.3-.4.1 0 .4 0 1 .1.8.1 2.6.2 5.4.2 3.4 0 6.3-.1 8.7-.2.8 0 1.2 0 1.2.2 0 0 0 .1 0 .1"/><path d="m61.5 26.9c0 .5-.3.7-.8.6-1.7-.2-3.8-.1-6.3.1-.5 0-.8 0-.9 0-.1-.1-.2-.3-.2-.6 0-.3.3-.5 1-.7.7-.2 1-.8 1-1.8v-16.7c0-1-.1-1.7-.4-2.2-.3-.5-.8-.8-1.5-1.1-.4-.1-.6-.3-.6-.6 0-.4.3-.6.8-.8.8-.3 1.7-.7 2.6-1.2.7-.4 1.2-.7 1.4-.7.5 0 .7.3.7.9 0 0 0 .6-.1 1.8 0 1.2 0 2.4 0 3.6l.1 16.4c0 .7.2 1.3.6 1.6.4.3 1 .6 1.9.7.4.1.7.3.7.7"/><path d="m78.2 25.6c0 .3-.5.6-1.4 1.2-.9.5-1.7.8-2.2.8-.5 0-.9-.2-1.3-.7-.4-.5-.6-.7-.8-.7-.1 0-.7.3-1.7.8-1.1.5-2.1.8-3.2.8-1 0-1.8-.3-2.5-.9-.7-.6-1.1-1.5-1.1-2.6 0-2.1 2.4-3.6 7.3-4.5.8-.2 1.3-.5 1.3-1v-1.2c.1-2-.8-3-2.7-3-.5 0-1 .5-1.5 1.4-.5.9-1.1 1.4-2 1.5-1 .1-1.5-.3-1.5-1.3 0-.6.7-1.3 2.2-2.1 1.6-.8 3.1-1.2 4.5-1.2 2.5 0 3.7 1.2 3.7 3.5l-.1 7.6c0 .8.3 1.2 1 1.2.1 0 .4 0 .8-.1.4-.1.6-.1.7-.1.3-.1.5.1.5.6m-5.6-4.2c0-.3-.1-.5-.2-.6-.2-.1-.4-.1-.7-.1-2.9.5-4.4 1.5-4.4 2.9 0 1.4.8 2.1 2.3 2.1.6 0 1.2-.1 1.9-.3.8-.3 1.1-.6 1.1-1v-3"/><path d="m91.9 23.4c0 1.3-.5 2.3-1.5 3.1-1 .8-2.4 1.1-4.1 1.1-1.1 0-2.3-.1-3.4-.4-1-.2-1.6-.4-1.7-.6-.1-.2-.1-1-.1-2.5 0-.6.1-1 .4-1 .3 0 .5.1.8.5.9 1.6 2.4 2.4 4.4 2.4 1.7 0 2.6-.6 2.6-1.8 0-.5-.2-1-.6-1.3-.4-.4-1.3-.9-2.5-1.4-1.8-.8-3-1.5-3.6-2.1-.6-.6-1-1.5-1-2.6 0-1.3.5-2.3 1.5-3.1.9-.7 2.2-1.1 3.8-1.1 1 0 1.9.1 2.7.2.9.2 1.3.4 1.4.6.1.7.3 1.7.6 3 0 .2-.1.3-.5.4-.4.1-.7 0-.8-.2-1-1.6-2.2-2.4-3.7-2.4-1.7 0-2.5.5-2.5 1.6 0 .6.2 1.1.7 1.4.4.3 1.4.8 2.8 1.4 1.6.7 2.6 1.3 3.2 1.8.7.9 1.1 1.9 1.1 3"/><path d="m113.2 26.7c0 .4-.3.7-.9.7-.9 0-2 .1-3.4.2-.7.1-1.2 0-1.5-.3-1.9-2.1-3.6-4.3-4.9-6.5-.1-.2-.2-.3-.4-.3-.2 0-.6.2-1.1.6-.6.3-.9.8-.9 1.4 0 .4 0 1 0 1.8 0 .8.2 1.3.6 1.5.3.2.9.3 1.8.4.6.1.9.3.9.6 0 .3 0 .5-.1.5-.1.1-.3.1-.7 0-1.2-.1-3.3 0-6.2.2-.7.1-1.1 0-1.2-.3 0-.1 0-.2 0-.4 0-.4.4-.7 1.1-.9.7-.2 1-1 1-2.4v-16c0-1-.1-1.7-.3-2.1-.3-.5-.8-.9-1.7-1.2-.4-.1-.6-.3-.6-.6 0-.4.3-.6.9-.8.9-.3 1.8-.7 2.6-1.3.7-.4 1.1-.7 1.2-.7.5 0 .8.3.8 1 0-.1 0 .5 0 1.8 0 .9 0 2.1 0 3.6v11.5c0 .3.1.5.3.5.2 0 .5-.2.8-.5 1-.8 2.3-1.8 3.7-3.1.3-.3.4-.5.4-.7 0-.3-.5-.6-1.5-.7-.4 0-.6-.3-.6-.7 0-.4.3-.6.6-.5.9.1 2.2.2 3.9.2 1.2 0 2.3 0 3.5 0 .4 0 .6.2.6.7 0 .4-.3.6-.9.7-.9 0-1.8.2-2.7.6-1.2.5-2.4 1.4-3.7 2.8-.1.1-.1.2-.1.3 0 .2.2.6.6 1.2 1.5 2.3 3 4.1 4.3 5.3.9.7 1.7 1.1 2.4 1.1.6 0 .9 0 1 .1.3.2.4.4.4.7"/></g></svg>